# xmcd
#
# Track frame offsets:
#	150
#	11328
#	24549
#	36346
#	48512
#	63664
#	78859
#	90154
#	102619
#	115382
#	127974
#	140157
#
# Disc length: 2064 seconds
#
# Revision: 1
# Processed by: cddbd v1.5.2PL0 Copyright (c) Steve Scherf et al.
# Submitted via: audiograbber 1.83.01
#
DISCID=9d080e0c
DTITLE=Die Original Steirer - I mog die Voljsmusik
DYEAR=2004
DGENRE=Country
TTITLE0=I mog die Volksmusik
TTITLE1=Auf der Rennbahn
TTITLE2=Dixie Polka
TTITLE3=Mit
TTITLE4=Ein Walzer mit Julia
TTITLE5=Preuﬂenpolka
TTITLE6=Doch wenn erst der Abend kommt
TTITLE7=In der Sonnseitn
TTITLE8=Mitterbergpolka
TTITLE9=Wir feiern heut Geburtstag
TTITLE10=Im Abendrot
TTITLE11=Steirerpolka
EXTD=
EXTT0=
EXTT1=
EXTT2=
EXTT3=
EXTT4=
EXTT5=
EXTT6=
EXTT7=
EXTT8=
EXTT9=
EXTT10=
EXTT11=
PLAYORDER=
